HIERARCHY
ROOT Hips
{
	OFFSET 0.00000 0.00000 0.00000
	CHANNELS 6 Xposition Yposition Zposition Zrotation Yrotation Xrotation 
	JOINT LHipJoint
	{
		OFFSET 0 0 0
		CHANNELS 3 Zrotation Yrotation Xrotation
		JOINT LeftHip
		{
			OFFSET 1.30186 -1.90722 0.65024
			CHANNELS 3 Zrotation Yrotation Xrotation
			JOINT LeftKnee
			{
				OFFSET 2.56413 -7.04489 0.00000
				CHANNELS 3 Zrotation Yrotation Xrotation
				JOINT LeftAnkle
				{
					OFFSET 2.79321 -7.67428 0.00000
					CHANNELS 3 Zrotation Yrotation Xrotation
					JOINT LeftToe
					{
						OFFSET 0.15723 -0.43198 2.08537
						CHANNELS 3 Zrotation Yrotation Xrotation
						End Site
						{
							OFFSET 0.00000 -0.00000 1.07411
						}
					}
				}
			}
		}
	}
	JOINT RHipJoint
	{
		OFFSET 0 0 0
		CHANNELS 3 Zrotation Yrotation Xrotation
		JOINT RightHip
		{
			OFFSET -1.28627 -1.90723 0.65024
			CHANNELS 3 Zrotation Yrotation Xrotation
			JOINT RightKnee
			{
				OFFSET -2.56567 -7.04913 0.00000
				CHANNELS 3 Zrotation Yrotation Xrotation
				JOINT RightAnkle
				{
					OFFSET -2.75597 -7.57198 0.00000
					CHANNELS 3 Zrotation Yrotation Xrotation
					JOINT RightToe
					{
						OFFSET -0.17500 -0.48081 2.22901
						CHANNELS 3 Zrotation Yrotation Xrotation
						End Site
						{
							OFFSET -0.00000 -0.00000 1.14762
						}
					}
				}
			}
		}
	}
	JOINT lowerback
	{
		OFFSET 0 0 0
		CHANNELS 3 Zrotation Yrotation Xrotation
		JOINT Chest
		{
			OFFSET -0.04522 2.07467 -0.16566
			CHANNELS 3 Zrotation Yrotation Xrotation
			JOINT Chest2
			{
				OFFSET -0.01178 2.08825 -0.05393
				CHANNELS 3 Zrotation Yrotation Xrotation
				JOINT lowerneck
				{
					OFFSET 0 0 0
					CHANNELS 3 Zrotation Yrotation Xrotation
					JOINT Neck
					{
						OFFSET -0.05182 1.80489 0.16014
						CHANNELS 3 Zrotation Yrotation Xrotation
						JOINT Head
						{
							OFFSET 0.14739 1.78840 -0.33342
							CHANNELS 3 Zrotation Yrotation Xrotation
							End Site
							{
								OFFSET 0.04364 1.83899 -0.13460
							}
						}
					}
				}
				JOINT LeftCollar
				{
					OFFSET 0 0 0
					CHANNELS 3 Zrotation Yrotation Xrotation
					JOINT LeftShoulder
					{
						OFFSET 3.01264 1.29090 -0.06579
CHANNELS 3 Zrotation Xrotation Yrotation
						JOINT LeftElbow
						{
OFFSET 0 -5.556800 0.000000
CHANNELS 3 Zrotation Xrotation Yrotation
							JOINT LeftWrist
							{
OFFSET 0 -3.639790 -0.000000
CHANNELS 3 Zrotation Xrotation Yrotation
								JOINT lhand
								{
									OFFSET 0 0 0
CHANNELS 3 Zrotation Xrotation Yrotation
									JOINT LFingers
									{
OFFSET 0 -0.569420 -0.000000
CHANNELS 3 Zrotation Xrotation Yrotation
										End Site
										{
OFFSET 0 -0.459080 -0.000000
										}
									}
								}
								JOINT LThumb
								{
OFFSET 0 0.000000 0.000000
CHANNELS 3 Zrotation Xrotation Yrotation
									End Site
									{
OFFSET 0 -0.466090 0.466090
									}
								}
							}
						}
					}
				}
				JOINT RightCollar
				{
					OFFSET 0 0 0
					CHANNELS 3 Zrotation Yrotation Xrotation
					JOINT RightShoulder
					{
						OFFSET -3.15796 1.37283 -0.36748
CHANNELS 3 Zrotation Xrotation Yrotation
						JOINT RightElbow
						{
OFFSET 0 -5.343390 0.000000
CHANNELS 3 Zrotation Xrotation Yrotation
							JOINT RightWrist
							{
OFFSET 0 -3.651010 -0.000000
CHANNELS 3 Zrotation Xrotation Yrotation
								JOINT rhand
								{
									OFFSET 0 0 0
CHANNELS 3 Zrotation Xrotation Yrotation
									JOINT RFingers
									{
OFFSET 0 -0.694250 -0.000000
CHANNELS 3 Zrotation Xrotation Yrotation
										End Site
										{
OFFSET 0 -0.559720 -0.000000
										}
									}
								}
								JOINT RThumb
								{
OFFSET 0 0.000000 0.000000
CHANNELS 3 Zrotation Xrotation Yrotation
									End Site
									{
OFFSET 0 -0.568270 0.568270
									}
								}
							}
						}
					}
				}
			}
		}
	}
}
MOTION
Frames: 5
Frame Time: 0.008333333333333333
16.191004 15.060893 -11.221926 53.707904 -70.717297 -407.599324 0.000000 0.000000 0.000000 -10.809185 -20.828603 -35.165816 11.129269 17.997772 63.200773 1.831105 -18.106960 -25.680843 4.272860 -12.514959 -37.578894 0.000000 0.000000 0.000000 11.282541 6.333240 -33.556855 -25.692279 -19.203785 106.858811 -0.714146 2.246384 -15.361190 -0.177813 -2.716368 7.490028 -11.816885 5.927614 19.534340 -5.955772 4.583218 6.221202 -0.859139 2.032477 -4.523666 -17.844507 -17.706695 1.020172 31.950554 -23.938403 -9.830420 10.963699 -12.587911 3.522581 0.000000 0.000000 0.000000 39.270361 17.263144 24.592105 9.066028 -15.265546 1.217437 26.345240 19.548189 -24.868828 0.000000 0.000000 0.000000 -7.125000 0.000000 0.000000 -3.568404 57.294302 1.075620 0.000000 0.000000 0.000000 -40.235424 -5.471539 5.290697 -34.321867 -44.321688 -14.337523 -21.551581 -37.704405 -25.408738 0.000000 0.000000 0.000000 7.125000 0.000000 0.000000 4.908015 3.011240 4.660765
16.135620 15.041420 -11.153299 56.630936 -71.860386 -410.555200 0.000000 0.000000 0.000000 -10.754719 -20.350291 -34.781128 11.326840 18.091239 63.838397 2.092460 -17.431412 -27.002315 4.318209 -12.571623 -37.786286 0.000000 0.000000 0.000000 10.935862 6.253168 -36.250254 -26.652416 -18.901731 109.800795 -0.739257 1.020966 -15.930657 -0.164429 -2.604000 7.178644 -11.702462 5.845796 19.455676 -5.972316 4.499557 6.180998 -0.912535 1.989330 -4.513593 -18.014243 -17.446170 0.635004 31.460277 -23.608216 -9.292146 10.851273 -12.349083 3.597397 0.000000 0.000000 0.000000 38.944392 15.893487 23.838866 9.160296 -15.415440 1.242357 26.466003 20.765901 -24.422312 0.000000 0.000000 0.000000 -7.125000 0.000000 0.000000 -3.279895 56.845817 0.954202 0.000000 0.000000 0.000000 -38.654653 -4.576689 5.211769 -34.729512 -44.617969 -14.623100 -21.431307 -37.834199 -25.748443 0.000000 0.000000 0.000000 7.125000 0.000000 0.000000 5.018180 2.680847 4.796737
16.077910 15.028854 -11.093564 59.548800 -72.946598 -413.522970 0.000000 0.000000 0.000000 -10.651439 -20.004563 -34.247779 11.456501 18.151308 64.255250 2.363686 -16.529138 -28.324369 4.502876 -12.801065 -38.628270 0.000000 0.000000 0.000000 10.608790 6.065545 -38.931406 -27.564476 -18.565178 112.641101 -0.757579 0.696283 -16.225377 -0.084009 -1.800806 4.957071 -11.572837 5.720105 19.408487 -5.901908 4.364298 6.105157 -0.871447 1.925928 -4.561476 -18.216309 -17.082599 0.553281 30.918043 -23.114261 -8.977390 10.801516 -12.063948 3.515989 0.000000 0.000000 0.000000 38.608059 14.530383 22.350029 9.242974 -15.546769 1.264521 26.670081 20.396615 -23.369009 0.000000 0.000000 0.000000 -7.125000 0.000000 0.000000 -2.712798 55.764422 0.719290 0.000000 0.000000 0.000000 -37.214913 -3.720379 5.241493 -34.964647 -44.786783 -14.788436 -21.210810 -37.468158 -26.083082 0.000000 0.000000 0.000000 7.125000 0.000000 0.000000 5.188255 2.374745 4.989720
16.022131 15.026552 -11.048409 63.025811 -73.630391 -417.100239 0.000000 0.000000 0.000000 -10.959056 -19.702826 -33.518350 11.488505 18.165914 64.358049 2.572810 -15.488144 -29.297842 4.545755 -12.852254 -38.819566 0.000000 0.000000 0.000000 9.856476 5.521117 -41.670020 -28.445595 -18.191472 115.435817 -0.781666 1.104868 -16.371562 -0.012044 -0.590265 1.622342 -11.792406 5.667279 19.545424 -5.854362 4.216748 6.077515 -0.676124 1.852103 -4.670207 -18.224179 -16.787851 0.292649 30.226090 -22.663572 -8.732870 10.648972 -11.791740 3.408149 0.000000 0.000000 0.000000 38.096856 12.980538 20.414370 9.464271 -15.896814 1.324798 27.001600 18.778079 -22.612173 0.000000 0.000000 0.000000 -7.125000 0.000000 0.000000 -2.128450 55.021779 0.523706 0.000000 0.000000 0.000000 -35.920677 -2.741331 5.264650 -35.151173 -44.919699 -14.919978 -20.859451 -36.827754 -26.450649 0.000000 0.000000 0.000000 7.125000 0.000000 0.000000 5.440172 2.059199 5.265620
15.962561 15.041307 -11.013740 67.228221 -73.698825 -421.622922 0.000000 0.000000 0.000000 -12.037997 -19.220574 -32.387322 11.410841 18.130206 64.108565 2.751603 -14.217862 -30.103716 4.747924 -13.093757 -39.721156 0.000000 0.000000 0.000000 8.286084 4.392800 -44.197366 -29.282205 -17.789553 118.144385 -0.816657 2.237141 -16.475533 -0.001133 0.139098 -0.382042 -12.364883 5.706014 19.926637 -6.020056 4.046010 6.147353 -0.529271 1.755644 -4.799871 -17.830332 -16.577350 -0.191995 29.407575 -22.311604 -8.384947 10.353402 -11.555669 3.324927 0.000000 0.000000 0.000000 37.740237 11.430708 17.990738 9.889218 -16.565408 1.443850 26.506900 16.146790 -22.090333 0.000000 0.000000 0.000000 -7.125000 0.000000 0.000000 -2.503492 54.359571 0.572688 0.000000 0.000000 0.000000 -34.566914 -1.611549 5.285186 -35.296311 -45.022493 -15.022571 -20.169860 -36.064031 -26.851427 0.000000 0.000000 0.000000 7.125000 0.000000 0.000000 5.897075 1.771158 5.743565
